<svg width="100" height="40" viewBox="0 0 100 40" fill="none" xmlns="http://www.w3.org/2000/svg">
<path d="M54.5171 17.891C53.0531 17.891 51.9116 17.2979 51.9116 16.1612C51.9116 15.4198 52.3335 14.8515 53.1275 14.8515C53.7231 14.8515 54.0208 15.2221 54.2193 15.7411C54.4427 16.3095 54.4675 16.9272 54.8645 17.5698C56.2045 17.4462 57.0233 16.7543 57.0233 15.6422C57.0233 14.9503 56.7007 14.2831 55.8322 12.924L55.2119 11.9108C54.3186 10.5022 53.9712 9.78557 53.9712 8.84652C53.9712 6.79545 55.8074 5.53516 57.9911 5.53516C59.4551 5.53516 60.5965 6.12824 60.5965 7.26498C60.5965 8.00633 60.1995 8.5747 59.3807 8.5747C58.7851 8.5747 58.4625 8.20402 58.264 7.68507C58.0407 7.11671 58.0407 6.49891 57.6437 5.85641C56.3285 5.95526 55.4848 6.67189 55.4848 7.75921C55.4848 8.47585 55.8322 9.14306 56.6759 10.5022L57.2963 11.5154C58.1896 12.924 58.537 13.6406 58.537 14.5796C58.537 16.6307 56.7007 17.891 54.5171 17.891Z" fill="white"/>
<path d="M43.0089 17.891C41.7433 17.891 40.8997 17.2238 40.8997 15.9635C40.8997 15.321 41.0982 14.5549 41.6193 13.4429L43.7036 8.77239C43.9766 8.20402 44.1007 7.75921 44.1007 7.43796C44.1007 6.96843 43.8525 6.79545 43.5051 6.79545C42.8848 6.79545 42.3141 7.41325 41.3463 9.16778L41.0237 9.06893C41.9418 7.16613 42.984 5.53516 44.4729 5.53516C45.2421 5.53516 45.9369 5.88112 45.9369 6.91901C45.9369 7.43796 45.6888 8.17931 45.3414 8.97008L43.1577 13.7889C42.8352 14.5302 42.7111 15.0492 42.7111 15.4693C42.7111 16.1859 43.1329 16.4577 43.654 16.4577C45.8625 16.4577 48.7161 11.3918 50.602 5.8317H52.2149L49.5349 14.6785C49.3861 15.1974 49.2868 15.5928 49.2868 15.8894C49.2868 16.3342 49.4853 16.5319 49.8575 16.5319C50.4779 16.5319 51.1231 15.7905 51.9915 14.1842L52.2893 14.2584C51.396 16.1365 50.329 17.7922 48.865 17.7922C48.1454 17.7922 47.5498 17.3473 47.5498 16.4824C47.5498 15.6175 47.922 14.3819 49.7831 9.71143H49.5598C46.6565 15.667 45.0436 17.891 43.0089 17.891Z" fill="white"/>
<path d="M37.7034 16.3593C38.2493 16.3593 38.9193 15.8404 39.9118 14.1353L40.16 14.2094C39.3411 16.0628 38.1004 17.7432 36.7356 17.7432C36.016 17.7432 35.3461 17.3972 35.3461 16.3593C35.3461 15.4203 36.0408 13.6904 37.8523 9.93427H37.5793C34.825 14.9013 33.088 17.8914 30.8795 17.8914C29.6388 17.8914 28.7207 17.1254 28.7207 15.3956C28.7207 11.8618 33.6587 5.83212 37.0582 5.83212C37.6289 5.83212 38.1252 5.98039 38.4974 6.25222L38.82 5.33789H40.5818L37.3312 14.7778C36.9838 15.8651 37.1575 16.3593 37.7034 16.3593ZM31.5743 16.1616C33.1872 16.1616 35.0731 13.814 38.2245 8.05618C37.6041 6.89473 36.6612 6.42521 35.9664 6.37578C34.4031 6.44992 30.4329 11.7135 30.4329 14.9013C30.4329 15.8651 31.0284 16.1616 31.5743 16.1616Z" fill="white"/>
<path d="M21.9687 17.8914C18.0233 17.8914 14.4749 15.6426 14.4749 10.6509C14.4749 5.43669 18.3707 0.395508 24.6982 0.395508C27.9241 0.395508 29.5618 1.40869 30.0085 1.40869C30.3807 1.40869 30.6288 1.13686 30.9514 0.617912H31.1747L29.6362 5.98035H29.3385C29.3385 5.80737 29.3633 5.63439 29.3633 5.48612C29.3633 2.39715 27.8496 0.716759 24.6734 0.716759C19.7602 0.716759 16.8074 5.93093 16.8074 10.7991C16.8074 15.6426 19.4128 17.5701 22.0183 17.5701C24.5245 17.5701 26.6089 15.4944 28.3211 11.664H28.6189L27.2045 16.5817C25.6908 17.3724 23.9042 17.8914 21.9687 17.8914Z" fill="white"/>
<path d="M8.83381 9.36573L7.99013 9.95881L5.26058 6.94399L2.50622 9.95881L1.66254 9.36573L3.72211 5.83196L0 4.17628L0.297769 3.18781L4.31765 4.05272L4.71467 0H5.80649L6.1787 4.05272L10.1986 3.18781L10.5212 4.17628L6.77424 5.83196L8.83381 9.36573Z" fill="white"/>
<path d="M75.9484 33.8715C78.1072 33.8715 78.9757 32.537 79.199 31.771H81.8045C81.1593 34.168 79.2735 35.9967 76.0228 35.9967C72.0774 35.9967 69.6704 33.2784 69.6704 29.3245C69.6704 25.2224 72.0774 22.6523 75.8987 22.6523C79.9931 22.6523 82.003 25.4942 82.003 29.9917H72.2759C72.2759 32.1169 73.6407 33.8715 75.9484 33.8715ZM75.8987 24.7034C73.7895 24.7034 72.2759 26.112 72.2759 28.0642H79.3975C79.3975 26.112 78.0079 24.7034 75.8987 24.7034Z" fill="white"/>
<path d="M64.7321 22.6523C67.0894 22.6523 68.9505 24.0115 68.9505 26.9028V35.626H66.3202V27.6441C66.3202 25.939 65.6006 24.8517 63.8139 24.8517C61.804 24.8517 60.5137 26.0626 60.5137 27.9406V35.626H57.9082V22.9983H60.5137V24.6293H60.5633C61.2333 23.6408 62.5484 22.6523 64.7321 22.6523Z" fill="white"/>
<path d="M53.6465 22.998H56.252V35.6257H53.6465V22.998Z" fill="white"/>
<path d="M49.3885 22.9983H51.994V34.7611C51.994 38.3937 49.7855 40 46.1875 40C42.5398 40 40.5299 38.0972 40.2569 35.9719H42.8872C43.1353 37.084 44.0286 37.9242 46.0882 37.9242C48.2719 37.9242 49.3885 36.9357 49.3885 34.6622V33.1301H49.3389C48.6689 34.0692 47.5026 35.0082 45.4927 35.0082C42.3165 35.0082 39.9343 32.8089 39.9343 28.8303C39.9343 24.827 42.3165 22.6523 45.4927 22.6523C47.5026 22.6523 48.6689 23.5914 49.3389 24.481H49.3885V22.9983ZM45.989 32.883C48.0982 32.883 49.3637 31.4991 49.3637 28.8303C49.3637 26.1614 48.0982 24.7775 45.989 24.7775C43.7061 24.7775 42.5398 26.4827 42.5398 28.8303C42.5398 31.1532 43.7061 32.883 45.989 32.883Z" fill="white"/>
<path d="M34.996 22.6523C37.3533 22.6523 39.2144 24.0115 39.2144 26.9028V35.626H36.5841V27.6441C36.5841 25.939 35.8645 24.8517 34.0779 24.8517C32.0679 24.8517 30.7776 26.0626 30.7776 27.9406V35.626H28.1721V22.9983H30.7776V24.6293H30.8272C31.4972 23.6408 32.8123 22.6523 34.996 22.6523Z" fill="white"/>
<path d="M21.3236 33.8715C23.4824 33.8715 24.3509 32.537 24.5742 31.771H27.1797C26.5346 34.168 24.6487 35.9967 21.3981 35.9967C17.4526 35.9967 15.0457 33.2784 15.0457 29.3245C15.0457 25.2224 17.4526 22.6523 21.274 22.6523C25.3683 22.6523 27.3782 25.4942 27.3782 29.9917H17.6511C17.6511 32.1169 19.0159 33.8715 21.3236 33.8715ZM21.274 24.7034C19.1648 24.7034 17.6511 26.112 17.6511 28.0642H24.7728C24.7728 26.112 23.3832 24.7034 21.274 24.7034Z" fill="white"/>
<path d="M98.3374 5.53516C99.4044 5.53516 100 6.44949 100 8.35229C100 11.7872 97.7915 15.321 94.9875 18.237C92.3076 21.0047 89.4788 22.8828 87.0967 22.8828C85.5086 22.8828 84.6897 21.8943 84.6897 20.8317C84.6897 20.0656 85.1115 19.4973 85.9056 19.4973C87.4689 19.4973 86.8485 21.8449 87.3696 22.4874C88.5359 22.438 90.1488 21.7213 91.2902 20.0656C92.4813 18.3605 93.0272 15.0986 93.0272 12.232C93.0272 9.26662 92.7046 6.91901 91.7865 6.91901C91.2902 6.91901 90.7691 7.90748 90.1736 9.66201L89.8262 9.58787C90.3721 7.56151 91.2654 5.53516 92.6302 5.53516C94.4168 5.53516 94.7642 8.42642 94.7642 11.3177C94.7642 13.7642 94.4664 16.606 93.325 19.176C97.0719 15.7658 99.2307 12.2567 99.4789 9.46432C98.8833 8.7971 98.0148 8.45114 97.5186 7.9569C97.2456 7.66036 97.0471 7.33911 97.0471 6.84488C97.0471 6.00468 97.5682 5.53516 98.3374 5.53516Z" fill="white"/>
<path d="M91.0685 6.5983H88.066L85.3117 14.0612C84.8898 15.1485 84.8402 15.4204 84.8402 15.6675C84.8402 16.137 85.0883 16.3841 85.535 16.3841C86.2546 16.3841 87.1727 15.5686 88.2645 13.8635L88.5375 13.9624C87.3216 16.0876 86.0561 17.768 84.3687 17.768C83.6739 17.768 82.8799 17.3726 82.8799 16.31C82.8799 15.8652 83.004 15.3462 83.3017 14.6049L86.5275 6.5983H84.0213L84.1206 6.27705H86.6268L87.4208 3.90472L89.4556 3.70703L88.2149 6.27705H91.1678L91.0685 6.5983Z" fill="white"/>
<path d="M82.6342 3.33569C81.8154 3.33569 81.2198 2.76732 81.2198 1.92712C81.2198 1.11164 81.8154 0.518555 82.6342 0.518555C83.4531 0.518555 84.0486 1.11164 84.0486 1.92712C84.0486 2.76732 83.4531 3.33569 82.6342 3.33569ZM78.6392 17.7673C77.7707 17.7673 77.2 17.2978 77.2 16.334C77.2 15.8398 77.3488 15.222 77.6714 14.4807L80.2273 8.59928C80.8476 7.166 80.4754 6.79533 79.9543 6.79533C79.2843 6.79533 78.6888 7.48725 77.721 9.19236L77.4233 9.09351C78.391 7.11658 79.4332 5.53503 80.9221 5.53503C81.7657 5.53503 82.3365 6.00455 82.3365 6.96831C82.3365 7.46254 82.1876 8.08033 81.865 8.82168L79.3091 14.7031C78.6888 16.1116 79.061 16.507 79.5821 16.507C80.2521 16.507 80.8724 15.8151 81.8154 14.11L82.1131 14.2088C81.1702 16.1858 80.1032 17.7673 78.6392 17.7673Z" fill="white"/>
<path d="M72.6863 17.7677C71.6937 17.7677 71.2471 17.2488 71.2471 16.3839C71.2471 15.8402 71.396 15.0988 71.8178 13.8633L75.5895 2.76771C76.0858 1.28501 76.1106 0.815486 74.7458 0.86491L73.7533 0.914333L73.8277 0.716639L78.0958 0H78.195L73.4059 14.061C73.1578 14.9012 72.9592 15.4942 72.9592 15.9143C72.9592 16.3097 73.1329 16.5074 73.5052 16.5074C74.2496 16.5074 75.0188 15.7414 76.4332 13.3196L76.731 13.4185C75.267 16.458 74.1255 17.7677 72.6863 17.7677Z" fill="white"/>
<path d="M68.4827 16.0214C69.0286 16.0214 69.6986 15.5025 70.6911 13.7974L70.9393 13.8715C70.1204 15.7249 68.8797 17.4053 67.5149 17.4053C66.7953 17.4053 66.1254 17.0593 66.1254 16.0214C66.1254 15.0824 66.8201 13.3526 68.6316 9.59637H68.3586C65.6043 14.5634 63.8673 17.5535 61.6588 17.5535C60.4181 17.5535 59.5 16.7875 59.5 15.0577C59.5 11.5239 64.438 5.49423 67.8375 5.49423C68.4082 5.49423 68.9045 5.6425 69.2767 5.91433L69.5993 5H71.3611L68.1105 14.4399C67.7631 15.5272 67.9368 16.0214 68.4827 16.0214ZM62.3536 15.8237C63.9665 15.8237 65.8524 13.4761 69.0038 7.71829C68.3834 6.55684 67.4405 6.08731 66.7457 6.03789C65.1824 6.11203 61.2122 11.3756 61.2122 14.5634C61.2122 15.5272 61.8077 15.8237 62.3536 15.8237Z" fill="white"/>
</svg>
