<svg width="129" height="32" viewBox="0 0 129 32" fill="none" xmlns="http://www.w3.org/2000/svg">
<g clip-path="url(#clip0_166_902)">
<path d="M71.81 23.6924V29.7847C68.7835 31.4117 65.4154 32.2974 61.9814 32.3693C53.0128 32.3693 47.6071 27.077 47.6071 20.4308C47.6071 13.2308 53.75 7.32312 61.6128 7.32312C63.2879 7.32854 64.9498 7.61989 66.5271 8.18466C67.5714 8.49235 68.2471 8.92312 68.9843 8.92312C69.7214 8.92312 69.7214 7.9385 69.7828 7.32312H70.6428L71.4414 15.5693H70.3971C70.0487 14.0903 69.2807 12.7439 68.1857 11.6924C67.3488 10.8793 66.3577 10.2426 65.2709 9.81978C64.1842 9.39699 63.0239 9.19672 61.8585 9.23081C56.4528 9.23081 53.32 13.477 53.32 19.877C53.32 26.277 57.19 30.4616 62.2885 30.4616C63.8679 30.4415 65.4221 30.0628 66.8343 29.3539V23.077C66.8343 21.0462 66.5271 20.2462 63.5785 20.2462V19.3231H74.39V20.2462C71.6871 20.2462 71.81 21.1077 71.81 23.6924ZM42.0785 13.5385V31.877H40.6657L22.4214 12.9231C22.4853 13.4126 22.5059 13.9069 22.4828 14.4V25.9077C22.4828 29.4154 22.4828 30.7077 25.6771 30.7077V31.6924H17.0771V30.7693C20.3943 30.7693 20.3943 29.2308 20.3943 25.9693V12.8616C20.3943 10.8924 20.3943 8.7385 16.9543 8.7385V7.87697H25.0628L40.1128 23.2616C40.0271 22.8571 39.9859 22.4443 39.99 22.0308V13.5385C39.99 10.1539 40.1128 8.67697 36.9185 8.67697V7.81543H45.4571V8.67697C42.2628 8.67697 42.0785 10.0308 42.0785 13.5385ZM0.614258 31.7539V30.7693C2.70283 30.7693 4.11569 30.5847 4.11569 27.6308V11.9385C4.11569 8.86158 3.00997 8.7385 0.614258 8.7385V7.87697H12.7157V8.7385C10.2585 8.7385 9.21426 8.80004 9.21426 11.9385V27.6308C9.21426 30.6462 10.4428 30.7693 12.7157 30.7693V31.7539H0.614258Z" fill="white"/>
<path d="M116.284 16.0615L113.704 14.0923L112.476 14.3384L111.677 16.0615L107.07 16.6769L103.999 13.723L101.173 5.72302L100.129 2.76918L97.6714 2.27687L94.8457 3.50764L91.0986 2.21533L88.9486 2.76918L88.2114 4.55379L86.9214 6.83072L86.5529 10.6461L87.9657 15.8769L86.7371 17.723L88.3957 21.4769L86.9214 24.0615L85.9386 27.0153L83.9114 26.7692L81.3929 27.9384L80.4714 29.2923L80.5943 31.1384L81.2086 31.4461L84.8329 31.5076L92.2657 31.3846L93.31 31.7538H114.687L118.68 28.8615L117.943 19.6307L116.284 16.0615ZM119.909 7.99995L118.434 5.0461L118.127 4.86149L117.267 4.61533L114.503 5.53841L114.38 7.13841L114.503 7.32302C114.622 7.54435 114.766 7.7509 114.933 7.93841C115.589 8.2517 116.267 8.51901 116.96 8.73841L119.909 7.99995Z" fill="black"/>
<path d="M95.4599 31.7539C95.1386 31.0378 94.9712 30.262 94.9685 29.4769C94.9303 28.992 95.0148 28.5051 95.2142 28.0616L94.2928 28.2462C94.0471 28.5539 93.9242 28.7385 93.9242 28.8616L94.3542 28.7385C94.4771 28.7385 94.5385 28.9231 94.5999 29.0462C94.5999 29.4769 93.9856 29.4769 93.8628 29.6616C93.6171 30.5231 94.3542 31.0769 94.4771 31.7539H95.4599ZM128.447 20.6769C128.419 16.8362 126.872 13.1631 124.147 10.4616C122.919 9.23079 121.69 8.67694 120.584 7.50771C120.081 7.00642 119.666 6.42394 119.356 5.78463C119.006 5.40456 118.589 5.09174 118.127 4.86156L118.434 5.60002H118.311C117.86 5.56938 117.43 5.39712 117.083 5.10771L117.451 4.73848C117.39 4.6154 117.083 4.6154 116.96 4.6154C115.547 4.36925 114.318 5.10771 112.967 5.35386V5.53848C113.827 5.78463 114.011 6.83079 114.441 7.38463H114.933L115.547 7.50771C115.531 7.33843 115.489 7.17253 115.424 7.0154C115.453 6.97719 115.49 6.94617 115.533 6.92481C115.575 6.90345 115.622 6.89232 115.67 6.89232C115.718 6.89232 115.765 6.90345 115.807 6.92481C115.85 6.94617 115.887 6.97719 115.916 7.0154C116.346 7.26155 116.96 6.83079 117.39 7.50771C116.885 7.44931 116.374 7.53462 115.916 7.75386C115.916 7.87694 116.161 8.00002 116.1 8.18463C115.67 8.00002 115.178 8.18463 114.994 7.87694H114.871C115.434 8.50683 116.156 8.97428 116.96 9.23079C118.066 9.4154 119.048 8.86156 120.093 9.16925C122.068 10.1943 123.729 11.7375 124.897 13.6342C126.066 15.5309 126.698 17.7099 126.727 19.9385C126.727 26.2154 123.103 28.7385 120.891 28.7385C120.402 28.7131 119.931 28.5416 119.54 28.2462C119.85 27.1246 119.995 25.9636 119.97 24.8C120.012 21.2712 118.792 17.8438 116.53 15.1385C115.608 14.2154 114.564 13.4154 113.458 13.4154C113.225 13.3877 112.988 13.4119 112.765 13.4864C112.542 13.5608 112.339 13.6837 112.168 13.8462C111.955 14.0242 111.787 14.2516 111.68 14.5089C111.573 14.7661 111.53 15.0455 111.554 15.3231C110.754 15.8552 109.812 16.1339 108.851 16.1231C107.679 16.084 106.554 15.6504 105.657 14.8923V13.5385C105.411 13.4769 104.551 12.9231 105.043 12.5539C105.202 12.6327 105.347 12.7366 105.473 12.8616C105.478 12.2325 105.308 11.6145 104.981 11.0769C104.743 11.0862 104.507 11.0217 104.306 10.8923C103.998 10.6505 103.8 10.2963 103.753 9.90771C104.06 10.3385 104.49 10.1539 104.736 10.4C104.306 9.35386 104.49 8.92309 103.691 7.44617C103.507 6.64617 102.77 6.2154 102.217 5.72309C101.971 5.53848 101.91 5.29232 101.603 5.29232C101.296 5.29232 101.234 4.73848 101.234 4.49232C101.407 4.55571 101.572 4.63828 101.726 4.73848C101.234 3.56925 100.866 2.27694 99.7599 1.66156L99.5142 1.78463H98.1628C98.4178 1.62113 98.6847 1.47713 98.9614 1.35386C98.838 1.22187 98.6827 1.12414 98.5104 1.07022C98.3382 1.01629 98.1549 1.00801 97.9785 1.04617C97.7942 1.04617 97.4256 1.35386 97.1185 1.35386H97.0571C97.0571 1.10771 96.9956 0.738478 97.4871 0.615402C96.979 0.526937 96.4594 0.526937 95.9514 0.615402C95.8285 0.984632 95.5828 1.23079 95.5828 1.60002C95.3371 1.78463 95.2756 2.03079 94.9685 2.27694C95.0483 1.75472 95.1716 1.24011 95.3371 0.738478C94.9685 0.861555 94.5385 1.10771 94.3542 1.10771C93.7784 0.788315 93.1568 0.55998 92.5114 0.430786C93.0028 0.800017 92.7571 1.35386 92.8185 1.78463L92.5114 1.66156C92.3885 1.29232 91.9585 1.04617 91.8971 0.615402C91.4339 0.627562 90.9849 0.777516 90.6071 1.04617V1.10771C90.761 1.14508 90.9058 1.21346 91.0325 1.30867C91.1592 1.40389 91.2653 1.52396 91.3442 1.66156C90.7299 1.66156 90.2999 1.35386 89.7471 1.35386L89.6242 1.29232C89.3884 1.41329 89.1795 1.58074 89.0099 1.78463C88.4413 2.22651 88.0142 2.82551 87.7814 3.50771L88.2728 3.56925C87.9042 3.69232 87.7199 4.12309 87.4128 4.18463V5.53848C87.0653 5.79115 86.79 6.13063 86.6142 6.52309C86.2174 8.02763 86.0517 9.58394 86.1228 11.1385C86.1046 11.2527 86.0545 11.3595 85.9785 11.4466C85.9024 11.5337 85.8034 11.5975 85.6928 11.6308V12.9846C85.9258 12.7647 86.1719 12.5591 86.4299 12.3692V13.5385C86.1228 13.5385 85.8156 13.9692 85.8156 14.1539L85.9385 15.2616C85.9249 15.3681 85.9465 15.4761 85.9999 15.5692C85.9999 15.3846 86.1842 15.2616 86.4299 15.1385C86.5656 15.0186 86.7405 14.9529 86.9214 14.9539C86.705 15.253 86.539 15.5856 86.4299 15.9385L86.1842 16.1846C86.1304 16.2596 86.0889 16.3427 86.0614 16.4308C86.4252 18.1419 86.9603 19.8118 87.6585 21.4154C86.7685 23.1045 86.1075 24.905 85.6928 26.7692C85.2734 26.3896 84.7217 26.1906 84.1571 26.2154C83.8869 26.2408 83.6257 26.3258 83.3921 26.464C83.1585 26.6023 82.9582 26.7906 82.8056 27.0154C82.5652 26.8848 82.2922 26.8269 82.0196 26.8488C81.747 26.8706 81.4866 26.9713 81.2699 27.1385C81.0309 27.297 80.841 27.5193 80.7216 27.7803C80.6022 28.0413 80.5581 28.3306 80.5942 28.6154C80.2562 28.9373 80.0577 29.3792 80.0414 29.8462C80.0101 30.545 80.2039 31.2354 80.5942 31.8154H93.4942C93.3974 31.5449 93.2516 31.2945 93.0642 31.0769C92.8965 30.5188 92.8545 29.9303 92.9414 29.3539C93.1754 28.8326 93.4636 28.3376 93.8014 27.8769C93.9242 27.6308 93.8014 27.6308 93.9242 27.5692L94.5385 27.4462C94.8456 27.4462 95.1528 27.2 95.5214 27.2C95.8285 27.5692 95.8285 26.9539 96.2585 26.7692C96.6716 26.6492 97.1103 26.6491 97.5235 26.7689C97.9367 26.8888 98.3075 27.1236 98.5928 27.4462V27.6308H98.2242C97.9753 27.4875 97.6995 27.3971 97.4141 27.3653C97.1288 27.3336 96.8399 27.3611 96.5656 27.4462L96.5042 27.8769V28.3077C96.8114 28.3077 97.1185 28.6769 97.4256 28.8C97.5432 28.6505 97.6922 28.5289 97.8621 28.4438C98.032 28.3587 98.2186 28.3122 98.4085 28.3077C98.5346 28.2993 98.661 28.3169 98.78 28.3595C98.899 28.4021 99.008 28.4687 99.1001 28.5553C99.1923 28.6419 99.2657 28.7465 99.3158 28.8627C99.3659 28.9789 99.3916 29.1042 99.3914 29.2308V30.1539C99.7504 30.4475 100.17 30.6577 100.62 30.7692C100.56 30.876 100.469 30.9623 100.36 31.0171C100.25 31.0719 100.127 31.0928 100.006 31.0769H99.2685C99.2071 31.0769 99.0228 31.0769 99.0228 30.7692C98.7872 31.0988 98.5816 31.449 98.4085 31.8154H108.36L107.93 31.0154C107.783 30.4534 107.721 29.8727 107.746 29.2923L108.667 28.0616C109.22 28.0616 109.65 27.8769 110.571 27.7539C110.756 27.5077 110.571 27.3846 111.37 27.3846C111.788 27.3617 112.206 27.4245 112.598 27.5692V27.9385C112.537 28.1231 112.046 27.7539 111.8 27.8769C111.554 28 111.923 28.1231 111.923 28.3077C112.046 28.4308 111.124 28.1231 111.124 28.1231L110.878 28.7385L111.37 29.3539C111.554 29.5385 111.124 29.8462 111.124 30.0923C110.94 29.9692 110.633 29.7231 110.633 29.8462C110.548 30.4991 110.507 31.157 110.51 31.8154H111.431L111.554 30.3385C111.616 29.4769 112.66 27.9385 113.274 27.9385C113.594 27.9601 113.898 28.0904 114.134 28.3077C114.257 28.6154 114.687 28.8 114.687 28.9231C114.687 29.0462 114.441 29.2308 114.073 29.2308C113.888 29.2308 113.888 28.9846 113.643 28.8L113.09 29.2923C113.09 29.2923 113.704 29.8462 113.704 30.1539C113.726 30.3116 113.71 30.4725 113.657 30.6225C113.603 30.7726 113.514 30.9074 113.397 31.0154L112.844 29.9692C112.598 29.9692 112.23 30.5231 112.23 30.7692C112.23 31.0154 111.984 31.2616 111.984 31.8154H117.267C117.881 31.797 118.477 31.605 118.987 31.2616H120.031C121.014 31.2979 121.993 31.1246 122.904 30.7533C123.815 30.382 124.636 29.8211 125.314 29.1077C127.218 27.0769 128.447 23.8154 128.447 20.6769ZM110.018 28.4923L109.158 28.5539C109.276 28.6217 109.373 28.7209 109.438 28.8403C109.503 28.9598 109.534 29.0949 109.527 29.2308C109.519 29.3725 109.482 29.511 109.419 29.638C109.355 29.7649 109.267 29.8776 109.158 29.9692C108.974 29.7846 108.974 29.4769 108.79 29.2308C108.667 29.2308 108.544 29.6616 108.544 29.8462C108.589 30.523 108.8 31.1783 109.158 31.7539H109.957C109.826 31.0631 109.744 30.3639 109.711 29.6616C109.75 29.2379 109.853 28.8227 110.018 28.4308V28.4923ZM98.7771 29.5385C98.7771 29.1692 98.5314 29.1077 98.1628 29.1077C97.9785 29.1077 97.6099 29.3539 97.6099 29.5385L97.4871 31.7539H98.0399C98.3478 31.0165 98.5943 30.2549 98.7771 29.4769V29.5385ZM96.9342 29.4154L96.1971 28.7385C96.0128 28.7385 95.7671 29.2308 95.7671 29.4154C95.78 30.2134 95.9254 31.0036 96.1971 31.7539H96.8114L96.9342 29.4154ZM119.356 7.87694C119.287 7.71929 119.176 7.5839 119.035 7.48605C118.894 7.3882 118.728 7.33176 118.557 7.32309C118.311 7.0154 117.943 6.58463 117.636 6.58463C117.881 6.58463 118.25 6.27694 118.68 6.27694L119.294 7.32309L119.356 7.87694ZM116.776 6.03079H115.854C115.67 5.78463 115.424 6.03079 115.24 6.03079C115.056 6.03079 114.994 6.03079 114.626 5.78463C115.063 5.7366 115.483 5.58927 115.854 5.35386C116.223 5.60002 116.53 5.72309 116.776 6.03079ZM114.748 15.8769C114.306 15.6397 113.829 15.4736 113.336 15.3846C112.956 15.4353 112.596 15.5837 112.291 15.8154C112.046 15.5077 112.476 14.8308 112.844 14.5846C112.938 14.5306 113.044 14.5022 113.151 14.5022C113.259 14.5022 113.365 14.5306 113.458 14.5846C113.458 15.1385 114.073 14.8923 114.441 15.0154C114.598 15.258 114.702 15.5304 114.748 15.8154V15.8769ZM114.626 17.1077L113.766 16.9846C113.526 16.974 113.287 17.025 113.072 17.1327C112.857 17.2404 112.673 17.4012 112.537 17.6C112.472 17.4878 112.438 17.3604 112.438 17.2308C112.438 17.1012 112.472 16.9738 112.537 16.8616C112.806 16.5444 113.174 16.3275 113.581 16.2462C113.839 16.227 114.095 16.3045 114.3 16.4637C114.504 16.6229 114.642 16.8524 114.687 17.1077H114.626ZM116.591 18.9539C115.896 18.5545 115.118 18.3228 114.319 18.2769C113.709 18.4061 113.14 18.6805 112.66 19.0769L112.476 18.2769C112.967 18.2154 112.967 17.7846 113.336 17.7846L114.196 17.7231C114.441 17.7231 114.564 17.5385 114.626 17.5385C115.056 17.5385 114.871 17.9692 115.178 17.9692C115.486 17.9692 115.608 17.7846 115.793 17.7846C116.223 17.7846 116.53 18.4616 116.591 19.0154V18.9539ZM116.898 20.8C116.284 20.8 115.67 20.6769 115.608 20.4308C115.547 20.1846 115.608 19.9385 115.178 19.9385C114.994 19.9385 114.748 20.1846 114.748 20.1846C114.564 20.2462 114.134 19.9385 114.134 20.1846C114.134 20.6154 113.766 20.8 113.336 20.8C113.165 20.7976 112.996 20.7555 112.844 20.6769V19.8154C113.95 19.8154 113.888 19.5077 114.38 19.5077C114.687 19.5077 114.933 19.6923 115.178 19.6923C115.608 19.6923 115.363 19.5077 115.793 19.5077C116.223 19.5077 116.407 19.8154 116.653 19.9385C116.653 20.1846 116.898 20.5539 116.898 20.8616V20.8ZM116.1 22.6462C115.854 22.6462 115.24 22.5231 115.24 22.2769C115.24 22.0308 115.056 21.8462 114.626 21.8462C114.266 21.8675 113.913 21.9507 113.581 22.0923C113.428 21.9074 113.303 21.6998 113.213 21.4769C113.584 21.3166 113.978 21.2129 114.38 21.1692C114.994 21.1692 115.608 21.1692 115.608 21.4154C115.608 21.6616 116.1 21.8462 116.1 22.7077V22.6462ZM101.234 9.35386L101.111 10.2154L100.374 10.4L100.804 8.55386C100.986 8.79774 101.131 9.06735 101.234 9.35386ZM117.758 25.7231C117.791 26.1172 117.682 26.5099 117.451 26.8308L116.96 26.0923C117.144 25.7846 117.144 25.4769 117.39 25.0462L117.758 25.7231ZM115.67 24.6154C115.056 24.6154 115.424 23.3846 114.196 23.3846C113.95 23.3846 113.766 23.8154 113.458 23.8769V23.2616C113.48 23.1252 113.537 22.9969 113.623 22.889C113.709 22.7812 113.822 22.6975 113.95 22.6462C114.564 22.6462 114.38 22.8923 114.871 23.0154C115.118 23.1521 115.39 23.2359 115.67 23.2616V24.6154ZM110.326 19.7539C109.588 19.3231 109.097 18.5231 108.483 17.7846C109.097 17.7846 109.343 18.4616 109.834 18.5846C110.018 18.7274 110.183 18.8928 110.326 19.0769V19.7539ZM103.016 13.4154C102.524 13.4154 102.278 13.1692 101.971 12.6769C101.933 12.3499 101.933 12.0194 101.971 11.6923C102.156 12.0616 102.156 12.1846 102.34 12.3692C102.647 12.1846 102.647 12.6154 102.77 12.7385C102.889 12.9487 102.972 13.1775 103.016 13.4154ZM117.144 28C117.033 28.148 116.95 28.3148 116.898 28.4923C116.898 28.0616 116.346 27.8154 116.038 27.1385L116.346 26.5231C116.512 26.6039 116.655 26.7251 116.762 26.8756C116.869 27.0261 116.937 27.2011 116.96 27.3846C116.912 27.503 116.912 27.6354 116.96 27.7539C116.96 27.7539 117.144 27.7539 117.144 28ZM115.424 25.5385C115.397 25.832 115.335 26.1212 115.24 26.4C114.626 26.3385 114.626 25.6616 114.626 25.5385C114.196 25.0462 113.581 25.4769 113.213 25.4769C113.028 24.9846 113.274 24.9846 113.274 24.6154C113.52 24.6154 113.766 24.4308 114.011 24.6154C114.441 24.4308 114.626 24.8616 115.117 24.8616C115.203 25.0943 115.306 25.3205 115.424 25.5385ZM111.124 22.0308C111.124 22.4 110.94 22.6462 111.063 23.0154C110.878 22.4616 110.51 21.9692 110.387 21.4769C110.387 21.3539 110.264 21.3539 110.448 21.2923C110.633 21.2308 110.878 21.2923 110.878 21.3539C111.004 21.5387 111.088 21.7487 111.124 21.9692V22.0308ZM103.63 15.2616C103.568 15.6308 103.2 15.2616 103.138 15.2616H102.34C102.278 15.1385 102.156 15.0769 102.156 14.8923C102.524 14.8308 102.77 14.6462 103.016 14.8308C103.261 15.0154 103.384 15.3231 103.63 15.3231V15.2616ZM105.473 17.2308C105.263 17.3768 105.011 17.4499 104.756 17.4388C104.501 17.4277 104.256 17.333 104.06 17.1692L104.736 16.8616C104.984 17.0196 105.253 17.1438 105.534 17.2308H105.473ZM109.896 22.0923L109.834 23.8154C109.588 23.8154 109.588 23.6308 109.588 23.2616C109.483 22.7791 109.339 22.3058 109.158 21.8462C108.883 21.145 108.555 20.4661 108.176 19.8154C108.114 19.4462 107.684 19.3231 107.316 19.0154C107.535 18.9846 107.758 19.0016 107.97 19.0654C108.182 19.1291 108.378 19.238 108.544 19.3846C108.544 19.5692 108.667 19.6308 108.913 19.8769C109.527 19.8769 109.343 20.6769 109.834 21.0462L109.343 21.6C109.588 21.7846 109.834 21.8462 109.957 22.0923H109.896ZM106.578 19.5692C106.578 19.8154 106.394 19.8769 106.21 20.0616C106.07 19.8775 105.966 19.6688 105.903 19.4462C105.896 19.1743 105.937 18.9033 106.026 18.6462C106.21 18.9539 106.578 19.2616 106.578 19.5692ZM114.564 27.3231L114.38 27.5077C114.02 27.323 113.617 27.2381 113.213 27.2616C113.213 26.8923 112.967 26.4616 112.783 26.4616C112.291 26.4616 112.353 26.8308 111.923 26.8308L112.721 26.0308C112.783 25.8462 112.783 25.8462 112.967 25.8462C113.213 26.0308 113.336 26.1539 113.581 26.1539C113.593 26.3204 113.572 26.4876 113.52 26.6462C113.766 26.8308 113.888 26.5231 114.073 26.8308C114.318 26.9539 114.564 27.0154 114.564 27.3846V27.3231ZM107.623 21.4154C107.623 21.5385 107.377 21.7231 107.316 21.7231C107.069 21.5052 106.88 21.2307 106.763 20.9231C106.759 20.5987 106.844 20.2796 107.008 20L107.316 20.1231C107.438 20.1231 107.316 20.4923 107.377 20.7385C107.684 20.9231 107.868 21.2308 107.684 21.4154H107.623ZM101.111 13.1692C100.056 12.569 98.8813 12.2116 97.6714 12.1231C97.7035 12.3301 97.6823 12.5419 97.6099 12.7385C98.6062 13.1564 99.5372 13.716 100.374 14.4V15.2C99.6083 14.2789 98.612 13.5781 97.4871 13.1692C97.4871 13.3539 97.1185 13.5385 97.0571 13.9077C96.4717 13.4186 95.7757 13.0806 95.0299 12.9231C94.7842 12.9231 94.6614 12 94.6614 12C94.8597 11.9296 95.0398 11.8157 95.1886 11.6667C95.3374 11.5176 95.4511 11.3372 95.5214 11.1385H95.8285C96.0742 11.1385 96.0742 11.0154 96.0742 10.7077C96.0742 10.2154 94.9685 10.2154 94.4771 10.2154C93.9919 10.138 93.4948 10.2246 93.0642 10.4616C92.8799 10.4616 93.0028 10.7077 93.0028 10.8923C93.0028 11.0769 93.2485 11.1385 93.2485 11.1385L93.7399 11.0154C93.7399 11.5077 93.8628 11.7539 94.3542 12V12.9231C93.4891 12.9751 92.6479 13.2279 91.8971 13.6616C91.6547 13.4979 91.4461 13.289 91.2828 13.0462C90.2748 13.4786 89.3254 14.0369 88.4571 14.7077V14.0923C89.2089 13.5121 90.0354 13.036 90.9142 12.6769V12.0616C90.5456 11.8769 90.2385 12.0616 89.8699 12.0616C89.1569 12.1543 88.4798 12.4298 87.9042 12.8616C87.9016 12.6754 87.881 12.4899 87.8428 12.3077C88.7763 11.7157 89.8732 11.4356 90.9756 11.5077V11.2C90.9142 11.0154 90.9142 10.7692 90.7299 10.7692C90.1861 10.2877 89.8186 9.63788 89.6856 8.92309L90.0542 8.80002C89.8699 8.30771 89.6856 7.0154 90.0542 6.58463C89.6014 6.36583 89.2185 6.02485 88.9485 5.60002C88.7607 5.22815 88.6164 4.83581 88.5185 4.43079L89.1942 3.20002C89.2904 3.20546 89.3864 3.1856 89.4726 3.14243C89.5588 3.09925 89.6322 3.03424 89.6856 2.95386C90.1156 2.89232 90.2999 2.46156 90.8528 2.70771C91.1708 2.7412 91.4817 2.82425 91.7742 2.95386C91.7668 3.03535 91.7797 3.11741 91.8119 3.19263C91.8441 3.26784 91.8945 3.33383 91.9585 3.38463C92.5114 3.38463 92.5114 3.93848 92.7571 4.36925C92.9578 4.41926 93.1647 4.43998 93.3714 4.43079C93.9856 4.6154 94.3542 4.6154 94.5385 4.80002C95.1947 4.44218 95.9508 4.31233 96.6885 4.43079C96.8347 4.09075 96.9578 3.74124 97.0571 3.38463C97.1185 3.63079 97.1185 3.38463 97.3028 3.38463C97.6099 3.13848 98.0399 2.70771 98.5928 2.89232C98.9614 3.13848 99.5756 2.95386 99.8828 3.38463L100.62 4.6154C100.313 5.10771 100.62 5.84617 100.067 6.09232L99.5756 6.58463C99.3914 6.58463 99.3913 6.76925 99.1456 6.76925C99.3443 7.44501 99.2784 8.17122 98.9614 8.80002C99.1456 8.67694 99.3914 8.67694 99.3914 8.43079V9.04617C99.3526 9.5204 99.1325 9.96132 98.7771 10.2769C98.5928 10.7692 98.1628 11.5077 97.6099 11.5077V11.7539C98.8348 11.7702 100.037 12.0872 101.111 12.6769V13.1692ZM104.551 18.5231L104.121 18.7077C103.799 18.7276 103.475 18.6835 103.169 18.5779C102.864 18.4723 102.582 18.3073 102.34 18.0923C102.708 18.0923 103.138 17.6616 103.138 17.6616C103.528 18.0658 104.014 18.3625 104.551 18.5231ZM102.156 16.6154C101.664 16.6154 101.111 16.8616 100.804 16.3692L101.357 15.8154L102.156 16.6154ZM109.158 24.6154C109.158 25.0462 108.606 25.5385 108.421 25.9077C108.606 25.4769 108.606 24.6154 108.421 24.6154C108.237 24.6154 107.93 24.6154 107.93 24.4308L107.991 23.6923C107.991 23.3231 107.746 23.1385 107.746 22.9539C107.746 22.4616 108.36 22.3385 108.544 22.0308C108.61 22.3961 108.631 22.7681 108.606 23.1385C108.606 23.3231 108.851 23.8769 108.606 24.3077C108.606 24.4923 109.158 24.3077 109.158 24.6154ZM107.193 23.6923C107.193 24.1846 106.824 24.6154 106.763 25.1077C106.786 24.6569 106.632 24.2149 106.333 23.8769C106.333 23.6923 106.578 23.6923 106.394 23.3846C106.394 23.3846 105.903 23.1385 105.903 22.7692C105.903 22.4 106.21 22.1539 106.394 21.9077C106.394 21.8462 106.763 22.0923 106.763 22.6462C106.756 22.817 106.715 22.9847 106.64 23.1385C106.578 23.3846 107.131 23.3846 107.131 23.6923H107.193ZM100.128 17.5385C99.6985 17.6616 99.3299 17.2308 98.8999 17.1077C98.8028 16.6902 98.6797 16.2791 98.5314 15.8769C98.8999 16.1231 99.6985 16.1231 99.5142 16.8616C99.5142 17.1077 99.8828 17.2308 100.128 17.6V17.5385ZM102.524 20C102.1 20.0383 101.673 19.9528 101.296 19.7539C100.925 19.5977 100.591 19.3673 100.313 19.0769C100.599 18.9065 100.91 18.7819 101.234 18.7077C101.575 19.1989 101.99 19.6348 102.463 20H102.524ZM88.2114 6.83079L87.5971 7.0154V6.52309C87.771 6.25274 87.9773 6.00474 88.2114 5.78463V6.83079ZM99.1456 18.7077C98.7771 18.8308 98.1628 18.9539 98.0399 18.5846C97.862 18.2759 97.7683 17.9257 97.7683 17.5692C97.7683 17.2128 97.862 16.8626 98.0399 16.5539C98.173 17.0184 98.2756 17.4912 98.3471 17.9692C98.4085 18.2769 98.9614 18.4616 99.0842 18.7077H99.1456ZM96.6885 14.0308C96.6635 14.6586 96.3997 15.253 95.9514 15.6923C95.9313 15.3892 95.8 15.1043 95.5828 14.8923L95.5214 15.1385C95.4437 15.4219 95.3821 15.7096 95.3371 16C95.2127 16.0852 95.0705 16.1406 94.9214 16.1619C94.7723 16.1832 94.6202 16.17 94.4771 16.1231V15.8769C94.407 15.6375 94.3861 15.3863 94.4156 15.1385L94.2928 15.0769C94.0471 15.1385 94.0471 15.3231 94.0471 15.5077C93.9132 15.688 93.8285 15.9001 93.8014 16.1231C93.5146 16.137 93.2321 16.0499 93.0028 15.8769V15.0769L92.9414 14.8923L92.5114 15.3231C92.354 15.1371 92.2349 14.9216 92.1611 14.6893C92.0873 14.4569 92.0602 14.2122 92.0814 13.9692C92.7177 13.6517 93.4152 13.4763 94.1257 13.4551C94.8363 13.4338 95.543 13.5673 96.1971 13.8462L96.6885 14.0308ZM101.111 20.9231H100.804C99.8828 21.2308 99.1456 20.6769 98.3471 20.1231C98.8404 19.9508 99.3604 19.8675 99.8828 19.8769L100.128 20.4308C100.473 20.5589 100.802 20.724 101.111 20.9231ZM88.3342 8.00002L87.9042 8.49232C88.0271 9.35386 87.6585 9.96925 87.6585 10.7077L87.2285 9.35386C87.3055 8.96211 87.4511 8.5871 87.6585 8.24617L88.3342 8.00002ZM97.1185 19.0769C96.6885 18.8308 95.8899 18.7077 96.0742 18.2154C96.2057 17.9326 96.42 17.6965 96.6885 17.5385C96.7376 18.0732 96.8833 18.5945 97.1185 19.0769ZM105.043 27.8154H104.981C104.797 27.5692 104.736 27.3846 104.551 27.3846C104.797 26.4616 104.306 25.6616 104.121 24.9231V24.6154C104.367 25.0462 105.104 25.4769 104.981 25.9077C105.036 26.5215 105.056 27.1378 105.043 27.7539V27.8154ZM103.077 24.6154C102.647 24.6154 102.34 24.6154 102.033 24.1846C101.971 24.1846 101.848 23.9385 101.726 24.1231C101.296 24.4308 100.866 23.8154 100.374 23.9385C100.128 24.1977 99.8048 24.3704 99.4528 24.4308V24.3692C99.4643 24.222 99.5163 24.0807 99.6031 23.9613C99.6898 23.8418 99.8079 23.7487 99.9442 23.6923C100.436 23.8154 100.866 22.7077 101.418 23.3231C101.619 23.3769 101.826 23.3977 102.033 23.3846C102.647 23.6923 102.831 24.1846 103.077 24.6154ZM95.2142 17.6616C95.2142 18.2769 95.1528 19.0769 94.5385 19.3231L94.3542 18.4616C94.6853 18.2472 94.9763 17.9764 95.2142 17.6616ZM98.0399 21.4154C97.7776 21.6298 97.4561 21.7587 97.1185 21.7846C96.5813 21.3139 96.1064 20.7762 95.7056 20.1846L97.1185 20.4308C97.4693 20.7349 97.7978 21.0639 98.1014 21.4154H98.0399ZM103.2 26.3385C102.831 26.0923 102.34 26.0923 102.156 25.6616C101.832 25.5971 101.502 25.5764 101.173 25.6C100.808 25.6617 100.437 25.6823 100.067 25.6616C99.9442 25.6616 100.067 25.6 99.8828 25.4769C99.3181 25.5554 98.7863 25.7898 98.3471 26.1539L98.7771 25.1692C99.0268 25.1253 99.2732 25.0636 99.5142 24.9846C99.7941 24.9053 100.083 24.8639 100.374 24.8616V24.9846C101.357 24.9846 102.401 24.8616 103.077 25.6616L103.2 26.3385ZM93.3714 19.0769C92.8799 18.5846 92.4499 18.1539 92.4499 17.6C92.7089 17.582 92.967 17.6466 93.1871 17.7846C93.1871 18.2154 93.3714 18.5231 93.3714 19.0769ZM91.7742 16.6154L91.4671 17.6616C91.1801 17.1856 90.9726 16.666 90.8528 16.1231L91.7742 16.6154ZM104.06 28.0616C103.908 28.3994 103.785 28.7493 103.691 29.1077C103.507 28.5539 103.323 27.8154 102.708 27.8154C102.69 27.6624 102.636 27.5158 102.551 27.3876C102.465 27.2593 102.351 27.1529 102.217 27.0769H101.603C101.603 27.3846 102.156 27.3846 101.787 27.8154C102.156 28.0616 102.401 28.0616 102.586 28.4308C102.708 28.7385 102.586 29.0462 102.647 29.2308L102.156 29.5385C102.156 29.1077 102.217 28.2462 101.664 28.0616C101.111 28.2462 101.05 27.5692 100.681 27.3846C100.558 27.3846 100.558 26.9539 100.251 27.1385C99.8214 27.3846 99.3299 27.1385 98.8999 27.3846L99.3299 26.6462C99.6985 26.4 100.006 26.5231 100.374 26.4L101.05 26.3385C101.738 26.4199 102.404 26.6285 103.016 26.9539C103.166 27.0253 103.293 27.1389 103.38 27.2809C103.467 27.4229 103.511 27.5872 103.507 27.7539C103.63 27.7539 103.998 27.7539 103.998 28.0616H104.06ZM97.3028 24.0616H97.1185C96.8084 23.9706 96.5172 23.8247 96.2585 23.6308C96.1958 23.4729 96.1545 23.3073 96.1356 23.1385H96.8114L97.3028 24.0616ZM90.6685 17.9077C90.1249 17.7002 89.6547 17.3362 89.3171 16.8616C89.1678 16.5323 89.0843 16.1768 89.0714 15.8154C89.2028 15.8256 89.3292 15.8709 89.4373 15.9467C89.5453 16.0225 89.6311 16.1259 89.6856 16.2462V16.3692C90.1491 16.7955 90.4707 17.354 90.6071 17.9692L90.6685 17.9077ZM94.7842 20.9846C94.7228 21.4154 94.4156 21.6 93.9856 22.2154L92.7571 22.7077C92.7571 22.4616 93.0642 22.3385 93.2485 22.0923C93.4829 21.8055 93.6887 21.4963 93.8628 21.1692C94.1202 21.0068 94.4186 20.9214 94.7228 20.9231L94.7842 20.9846ZM101.05 29.2308L100.804 29.4769C100.559 29.2308 100.743 28.5539 100.313 28.4923C99.8828 28.4308 99.5142 28.0616 99.3299 28L99.6985 27.8154C99.7974 27.7775 99.9067 27.7775 100.006 27.8154C100.19 27.9385 100.374 28.0616 100.374 28.2462C100.558 28.4923 100.804 28.2462 100.988 28.4923C101.064 28.7327 101.064 28.9904 100.988 29.2308H101.05ZM93.3714 20.3077C93.1256 20.8616 92.8185 21.2923 92.3271 21.5385C91.9221 21.6249 91.5035 21.6249 91.0985 21.5385C91.3442 21.2923 91.5899 21.2308 91.9585 20.9846L92.6342 20.3692L93.3714 20.3077ZM95.0914 24.2462C94.9467 24.3621 94.7752 24.4398 94.5927 24.4721C94.4103 24.5043 94.2226 24.4901 94.0471 24.4308L93.5556 23.6923H94.7842L95.0914 24.2462ZM88.8256 17.7231C88.3956 18.1539 87.9656 18.3385 87.8428 18.8923C87.8392 18.6352 87.7761 18.3824 87.6585 18.1539C87.7259 17.9048 87.878 17.6872 88.0885 17.5385L88.8256 17.7231ZM89.8085 19.0154C89.7697 19.4896 89.5496 19.9305 89.1942 20.2462C89.1187 20.3537 89.0366 20.4565 88.9485 20.5539C88.9485 20 89.1942 19.5692 89.1942 19.1385C89.4399 19.0154 89.6242 18.8923 89.8085 19.0154ZM91.0371 20.0616L90.6685 21.2923C90.2385 21.6 89.6856 21.4769 89.1942 21.4769C89.8085 21.2923 90.3614 20.5539 90.6685 20.0616H90.9756H91.0371ZM91.4671 24.3692L91.3442 25.7231C91.2214 25.1077 90.7299 24.4923 90.2385 24.4923C89.975 24.2766 89.7648 24.0028 89.6242 23.6923C89.4399 23.4462 89.1942 23.6923 88.8871 23.4462C88.5016 23.4055 88.1134 23.4919 87.7814 23.6923V23.3846L88.3956 22.7077C89.0099 22.7692 89.6856 22.7077 89.8699 23.1385C90.2132 23.3101 90.5248 23.539 90.7914 23.8154V24.0616L91.4056 24.3692H91.4671ZM90.9142 27.0769L90.2999 27.6308C90.1156 27.4462 90.2999 27.0154 90.0542 26.7077C90.0542 26.5846 90.2385 26.4616 90.1156 26.4L89.0714 25.8462C88.6848 25.5607 88.3156 25.2525 87.9656 24.9231C87.5971 24.9231 87.3514 25.0462 86.9214 25.1077V24.9846C87.1056 24.6154 87.1056 24.1846 87.5971 24.1846C87.9042 24.1846 88.2114 24.1846 88.3956 24.4308C88.7642 24.4308 88.8871 24.8 89.1328 24.8616C89.4192 25.1754 89.7504 25.4449 90.1156 25.6616C90.1102 25.7579 90.13 25.8541 90.1731 25.9404C90.2162 26.0268 90.2811 26.1004 90.3614 26.1539C90.9142 26.1539 90.7914 26.6462 90.9142 27.0154V27.0769ZM89.6856 28.3077L89.3785 29.1692L88.8256 27.6308C88.2114 27.0154 87.4128 26.8923 86.9828 26.5846C86.6142 26.4616 86.6142 26.7692 86.4299 26.5846C86.4197 26.4607 86.4364 26.3361 86.4788 26.2192C86.5212 26.1024 86.5884 25.9961 86.6756 25.9077H87.2285L87.7199 26.1539C88.0271 26.4 88.5799 26.4 88.5799 26.8923C88.5799 27.0154 88.5185 27.0769 88.7642 27.4462L89.5628 27.6308L89.6856 28.3077ZM87.2899 29.1692C87.2899 29.7846 86.1842 30.7692 86.1842 30.7692C86.1842 30.3385 86.4299 29.8462 86.4299 29.2923C86.2417 29.1224 86.0057 29.0149 85.7542 28.9846C85.5085 29.1692 85.5085 29.2923 85.3856 29.6C85.1399 30.0923 84.6485 30.6462 84.5256 31.1385C84.5094 31.1385 84.4937 31.132 84.4822 31.1205C84.4707 31.1089 84.4642 31.0933 84.4642 31.0769C84.4642 30.2154 84.5256 28.7385 85.0785 28.1231C85.2275 27.9386 85.4143 27.7882 85.6262 27.682C85.8381 27.5758 86.0703 27.5164 86.3071 27.5077L86.7985 27.6308L86.4299 28.1231C86.7985 28.3077 87.3514 28.6154 87.3514 29.1077L87.2899 29.1692ZM84.2799 28.6154C84.2949 28.9605 84.2095 29.3025 84.0342 29.6C83.9728 29.2308 83.7271 28.8 83.2971 28.8C82.9285 29.4769 82.8671 29.7231 83.1742 30.7692C82.9666 30.9999 82.7162 31.188 82.4371 31.3231C82.2893 30.9092 82.2266 30.4696 82.2528 30.0308C82.2403 29.4468 82.3233 28.8648 82.4985 28.3077C82.7442 28.0616 82.9285 27.6308 83.1742 27.4462H84.1571C83.7271 27.4462 83.7271 27.8154 83.7271 28.0616C83.9728 28.0616 84.3414 28.1846 84.3414 28.6154H84.2799ZM82.0685 29.6C82.0071 29.6 81.7614 29.2923 81.4542 29.2923C81.2085 29.8462 81.4542 30.1539 81.4542 30.7692C81.4618 30.9559 81.4411 31.1427 81.3928 31.3231C81.2085 31.3231 80.9014 30.9539 80.8399 30.5846V29.2308L81.5771 28.3077C81.7994 28.4144 81.9769 28.5966 82.0781 28.8218C82.1793 29.0471 82.1976 29.301 82.1299 29.5385L82.0685 29.6ZM99.6985 5.84617C99.7951 5.58367 99.8288 5.30209 99.7968 5.02416C99.7648 4.74623 99.668 4.47973 99.5142 4.24617C99.3914 3.87694 98.8999 3.75386 98.5314 3.38463L97.9171 3.75386C97.7568 3.84592 97.6258 3.98135 97.5389 4.14461C97.4519 4.30787 97.4127 4.49236 97.4256 4.67694C98.0238 5.00125 98.5148 5.49307 98.8385 6.09232H99.0842C99.3914 5.84617 99.5142 6.09232 99.6985 5.84617ZM96.8728 6.33848C96.8728 6.09232 96.7499 6.09232 96.6885 6.09232C96.2585 6.09232 96.2585 5.4154 95.8899 5.60002C95.7671 5.60002 95.5828 5.4154 95.2756 5.60002L95.4599 5.66156C95.8899 5.66156 95.7056 6.27694 96.0742 6.33848H96.8728ZM98.1628 7.38463C98.1628 7.38463 98.3471 7.38463 98.1628 7.32309L96.3199 7.0154C96.1356 7.32309 95.7056 7.32309 95.7056 7.56925H95.5214C95.6679 8.27732 95.7298 9.00036 95.7056 9.72309C95.9011 9.72309 96.0886 9.8009 96.2269 9.93938C96.3651 10.0779 96.4428 10.2657 96.4428 10.4616C96.7859 10.5926 97.1152 10.7575 97.4256 10.9539C97.6099 10.8923 97.6714 10.6462 97.7942 10.3385C97.4871 9.90771 96.6885 10.2154 96.6885 9.4154L96.1971 9.23079C96.2067 8.77633 96.1654 8.32222 96.0742 7.87694H96.1971L96.4428 8.18463C96.7819 8.24518 97.1314 8.17953 97.4256 8.00002C97.6099 7.87694 97.6099 7.50771 97.7942 7.50771C97.9785 7.50771 98.1014 7.50771 98.1628 7.32309V7.38463ZM93.9242 5.53848C93.8014 5.35386 93.3099 5.60002 93.0028 5.72309C92.8485 5.74728 92.7059 5.8199 92.5955 5.9305C92.4851 6.0411 92.4126 6.18395 92.3885 6.33848H93.3714C93.5243 6.0356 93.7326 5.76422 93.9856 5.53848H93.9242ZM92.0814 4.6154C91.9585 3.75386 91.0371 3.69232 90.6071 3.38463H90.2385C89.975 3.52962 89.7558 3.74362 89.6043 4.00377C89.4528 4.26391 89.3748 4.56041 89.3785 4.86156C89.5628 5.66156 90.0542 5.16925 90.4228 5.66156C90.9392 5.25801 91.4949 4.90753 92.0814 4.6154ZM97.1185 12.4308V12.0616H96.1971L97.1185 12.4308ZM93.2485 7.50771C93.2485 7.38463 93.0642 7.20002 92.8185 7.0154H90.7914C90.7914 7.08005 90.8041 7.14407 90.8288 7.2038C90.8535 7.26353 90.8897 7.3178 90.9353 7.36352C90.9809 7.40923 91.0351 7.44549 91.0947 7.47023C91.1543 7.49498 91.2183 7.50771 91.2828 7.50771C91.2828 7.87694 91.5285 7.93848 91.6514 8.06156C91.8971 8.24617 91.9585 8.24617 92.2656 8.06156C92.5114 8.24617 92.5728 7.87694 92.6956 8.06156C92.7027 8.45487 92.6614 8.84756 92.5728 9.23079C92.5114 9.84617 91.9585 9.72309 91.5899 9.96925C91.5899 10.2154 91.2828 10.6462 91.5899 10.9539C91.8588 10.7771 92.1474 10.6325 92.4499 10.5231C92.4499 10.2154 92.6956 9.96925 93.0642 9.78463C93.0028 8.98463 93.2485 8.24617 93.2485 7.50771ZM92.5728 12.0616C92.3885 11.6923 91.9585 12.0616 91.5285 11.8769C91.5159 11.9742 91.5325 12.073 91.5763 12.1607C91.62 12.2484 91.689 12.321 91.7742 12.3692C91.9944 12.1642 92.2742 12.0348 92.5728 12V12.0616Z" fill="white"/>
</g>
<defs>
<clipPath id="clip0_166_902">
<rect width="129" height="32" fill="white"/>
</clipPath>
</defs>
</svg>
