<svg width="132" height="55" viewBox="0 0 132 55" fill="none" xmlns="http://www.w3.org/2000/svg">
<path d="M14.7431 12.8192C14.7431 5.10897 19.2912 0 26.1789 0C33.0105 0 37.5773 5.10897 37.5773 12.8192C37.5773 20.1364 33.0105 25.0021 26.1789 25.0021C19.2912 25.0021 14.7431 20.1364 14.7431 12.8192ZM34.3019 12.8192C34.3019 6.6061 31.3073 2.97555 26.1789 2.97555C20.9944 2.97555 18.0185 6.6061 18.0185 12.8192C18.0185 18.6206 20.9944 22.0079 26.1789 22.0079C31.3073 22.0079 34.3019 18.6206 34.3019 12.8192Z" fill="#FFFDFF"/>
<path d="M60.2744 0.355568V3.38726H46.1808V11.6215H59.2075V14.5596H46.1808V24.7027H42.9615V0.355568H60.2744Z" fill="#FFFDFF"/>
<path d="M82.9463 0.355568V3.38726H68.8527V11.6215H81.8794V14.5596H68.8527V24.7027H65.6334V0.355568H82.9463Z" fill="#FFFDFF"/>
<path d="M105.618 0.355568V3.38726H91.5246V11.6215H104.551V14.5596H91.5246V24.7027H88.3053V0.355568H105.618Z" fill="#FFFDFF"/>
<path d="M9.09379 0.222551H11.8466L2.7471 24.6015H0.00960824L9.09379 0.222551Z" fill="#FFFDFF"/>
<path d="M117.64 0.0202328H120.393L111.294 24.3992H108.556L117.64 0.0202328Z" fill="#FFFDFF"/>
<path d="M20.008 30.1161V33.1666H11.5856V54.4633H8.42245V33.1666H0V30.1161H20.008Z" fill="#FFFDFF"/>
<path d="M34.1066 44.7506H28.2296V54.4633H25.0103V30.1161H35.6787C40.4702 30.1161 43.6707 32.9607 43.6707 37.3024C43.6707 40.3715 41.7803 42.6546 38.7483 43.4781C41.6119 44.0021 42.8472 45.574 43.2215 48.718L43.8766 54.4633H40.7322L40.1146 49.0736C39.7402 46.0606 37.9996 44.7506 34.1066 44.7506ZM35.3044 33.0168H28.2296V41.8874H35.3044C38.5424 41.8874 40.4328 40.3154 40.4328 37.5457C40.4328 34.6824 38.5424 33.0168 35.3044 33.0168Z" fill="#FFFDFF"/>
<path d="M70.2237 54.4633H66.7985L64.4028 48.2127H53.5285L51.2076 54.4633H47.7076L57.1969 30.1161H60.8092L70.2237 54.4633ZM58.9189 33.8215L54.5579 45.4805H63.3734L58.9189 33.8215Z" fill="#FFFDFF"/>
<path d="M72.8864 42.2242C72.8864 34.7385 77.2848 29.7606 83.9292 29.7606C89.9185 29.7606 93.9238 33.0917 94.6725 38.4814H91.3784C90.8917 34.9631 88.3276 32.7361 83.9479 32.7361C79.0442 32.7361 76.1618 36.217 76.1618 42.2242C76.1618 48.2689 79.0442 51.7684 83.9479 51.7684C88.2714 51.7684 90.8169 49.5414 91.3784 45.9858H94.6725C93.9051 51.4877 89.881 54.7627 83.9292 54.7627C77.3222 54.7627 72.8864 49.7473 72.8864 42.2242Z" fill="#FFFDFF"/>
<path d="M100.045 30.1161H103.264V41.9809L114.513 30.1161H118.78L108.636 40.5961L119.117 54.4633H115.243L106.427 42.8231L103.264 45.9483V54.4633H100.045V30.1161Z" fill="#FFFDFF"/>
<path d="M127.171 0V0.382947H126.107V3.05652H125.708V0.382947H124.644V0H127.171Z" fill="#FFFDFF"/>
<path d="M129.596 3.05652H129.218L128.209 0.561498V3.05652H127.802V0H128.388L129.409 2.49268L130.407 0H131.012V3.05652H130.61V0.561498L129.596 3.05652Z" fill="#FFFDFF"/>
</svg>
